<svg width="286" height="316" viewBox="0 0 286 316" fill="none" xmlns="http://www.w3.org/2000/svg">
<g filter="url(#filter0_d_1214_309)">
<path d="M133.543 152.135C132.343 153.735 141.377 154.969 145.043 155.635C157.543 152.635 156.362 150.635 157.862 149.135C163.452 143.545 194.043 68.6352 194.043 64.1352C196.543 43.1352 183.543 37.1352 183.043 35.6352C181.692 31.5825 157.543 22.1352 151.543 14.6352C145.543 7.13525 143.043 -4.86475 143.043 2.63525C143.043 10.1352 136.543 12.6352 136.543 14.6352C136.543 16.2353 113.543 29.3019 102.043 35.6352C96.5431 40.6352 91.5308 56.6352 94.0431 64.1352C128.043 165.635 135.043 150.135 133.543 152.135Z" fill="url(#paint0_linear_1214_309)"/>
<path d="M164.82 161.768C162.847 162.095 168.522 169.231 170.71 172.247C181.816 178.721 182.345 176.459 184.466 176.412C192.37 176.237 266.259 143.256 269.369 140.005C285.693 126.559 280.447 113.237 281.123 111.807C282.948 107.945 272.03 84.4245 272.879 74.8575C273.728 65.2904 280.217 54.8913 275.033 60.3106C269.848 65.7299 263.423 63.0429 262.04 64.4881C260.934 65.6442 235.282 59.1861 222.594 55.8125C215.164 55.6232 200.481 63.7194 197.112 70.8755C151.513 167.721 167.286 161.36 164.82 161.768Z" fill="url(#paint1_linear_1214_309)"/>
<path d="M110.192 172.92C110.527 174.892 117.64 169.188 120.647 166.987C127.075 155.855 124.811 155.335 124.756 153.215C124.549 145.311 91.2679 71.5575 88.0037 68.46C74.4916 52.1911 61.1907 57.4911 59.7584 56.8213C55.8887 55.0117 32.4129 66.0258 22.8425 65.2155C13.2721 64.4052 2.84662 57.9585 8.28697 63.1211C13.7273 68.2837 11.0665 74.7195 12.5173 76.0962C13.6779 77.1976 7.32421 102.876 4.00229 115.577C3.84328 123.008 11.9992 137.658 19.1689 140.998C116.199 186.202 109.774 170.455 110.192 172.92Z" fill="url(#paint2_linear_1214_309)"/>
<path d="M140.227 187.655C142.174 187.198 136.041 180.453 133.658 177.587C122.148 171.861 121.77 174.153 119.657 174.34C111.782 175.036 40.2319 212.824 37.3426 216.274C21.9424 230.768 28.0564 243.715 27.4767 245.186C25.9103 249.161 38.3581 271.909 38.1424 281.511C37.9268 291.113 32.1385 301.918 36.9541 296.168C41.7696 290.418 48.358 292.675 49.6421 291.142C50.6694 289.915 76.692 294.666 89.5748 297.194C97.0017 296.892 111.118 287.844 114.007 280.481C153.111 180.836 137.793 188.225 140.227 187.655Z" fill="url(#paint3_linear_1214_309)"/>
<path d="M165.703 175.676C165.8 173.678 157.628 177.721 154.217 179.225C145.548 188.716 147.647 189.71 147.246 191.793C145.751 199.556 162.412 278.738 164.935 282.464C174.637 301.255 188.766 298.936 190.021 299.898C193.412 302.497 218.705 296.782 227.878 299.629C237.051 302.477 245.848 311.012 241.644 304.802C237.44 298.591 241.421 292.877 240.3 291.221C239.403 289.896 251.124 266.182 257.096 254.49C258.848 247.267 254.029 231.207 247.744 226.405C162.689 161.413 165.582 178.173 165.703 175.676Z" fill="url(#paint4_linear_1214_309)"/>
</g>
<defs>
<filter id="filter0_d_1214_309" x="0" y="0.260742" width="285.413" height="314.754" filterUnits="userSpaceOnUse" color-interpolation-filters="sRGB">
<feFlood flood-opacity="0" result="BackgroundImageFix"/>
<feColorMatrix in="SourceAlpha" type="matrix" values="0 0 0 0 0 0 0 0 0 0 0 0 0 0 0 0 0 0 127 0" result="hardAlpha"/>
<feOffset dy="4"/>
<feGaussianBlur stdDeviation="2"/>
<feComposite in2="hardAlpha" operator="out"/>
<feColorMatrix type="matrix" values="0 0 0 0 0 0 0 0 0 0 0 0 0 0 0 0 0 0 0.25 0"/>
<feBlend mode="normal" in2="BackgroundImageFix" result="effect1_dropShadow_1214_309"/>
<feBlend mode="normal" in="SourceGraphic" in2="effect1_dropShadow_1214_309" result="shape"/>
</filter>
<linearGradient id="paint0_linear_1214_309" x1="155.19" y1="178.566" x2="242.291" y2="307.231" gradientUnits="userSpaceOnUse">
<stop stop-color="#EE3B3B"/>
<stop offset="1" stop-color="#EA8160"/>
</linearGradient>
<linearGradient id="paint1_linear_1214_309" x1="155.19" y1="178.566" x2="242.291" y2="307.231" gradientUnits="userSpaceOnUse">
<stop stop-color="#EE3B3B"/>
<stop offset="1" stop-color="#EA8160"/>
</linearGradient>
<linearGradient id="paint2_linear_1214_309" x1="155.19" y1="178.566" x2="242.291" y2="307.231" gradientUnits="userSpaceOnUse">
<stop stop-color="#EE3B3B"/>
<stop offset="1" stop-color="#EA8160"/>
</linearGradient>
<linearGradient id="paint3_linear_1214_309" x1="155.19" y1="178.566" x2="242.291" y2="307.231" gradientUnits="userSpaceOnUse">
<stop stop-color="#EE3B3B"/>
<stop offset="1" stop-color="#EA8160"/>
</linearGradient>
<linearGradient id="paint4_linear_1214_309" x1="155.19" y1="178.566" x2="242.291" y2="307.231" gradientUnits="userSpaceOnUse">
<stop stop-color="#EE3B3B"/>
<stop offset="1" stop-color="#EA8160"/>
</linearGradient>
</defs>
</svg>
